<?xml version="1.0" encoding="UTF-8" standalone="no"?>
<svg width="185px" height="120px" viewBox="0 0 185 120" version="1.1" xmlns="http://www.w3.org/2000/svg" xmlns:xlink="http://www.w3.org/1999/xlink">
    <!-- Generator: Sketch 3.7.2 (28276) - http://www.bohemiancoding.com/sketch -->
    <title>Artboard 1 Copy 7</title>
    <desc>Created with Sketch.</desc>
    <defs></defs>
    <g id="Page-1" stroke="none" stroke-width="1" fill="none" fill-rule="evenodd">
        <g id="Artboard-1-Copy-7">
            <g id="Feelers-Copy" transform="translate(68.000000, -0.500000)" stroke="#5D5D5D" stroke-width="2" stroke-linecap="round">
                <path d="M35.5,12.6388889 C35.5,12.6388889 36.8774379,10.3247371 38.6692096,7.54821809 C38.6692096,7.54821809 38.8474307,6.74637876 41.0211461,4.52234592 C42.8474307,2.65378617 47.5,0.361111111 47.5,0.361111111" id="Line"></path>
                <path d="M12,12.2777778 C12,12.2777778 8.65256928,6.38526765 6.47885393,4.1612348 C4.65256928,2.29267505 0,0 0,0" id="Line-Copy"></path>
            </g>
            <ellipse id="Oval-26-Copy-3" stroke="#5D5D5D" stroke-width="2" fill="#FFFFFF" transform="translate(51.302293, 64.187536) rotate(-30.000000) translate(-51.302293, -64.187536) " cx="51.3022931" cy="64.1875357" rx="51.2949982" ry="27.7590432"></ellipse>
            <path d="M82.0070508,66.1884467 C82.0070508,50.8575505 104.97342,38.4294036 133.303871,38.4294036 C161.634323,38.4294036 184.600691,50.8575505 184.600691,66.1884467 C184.600691,81.519343 161.634323,93.9474899 133.303871,93.9474899 C104.97342,93.9474899 82.0070508,81.519343 82.0070508,66.1884467 Z" id="Oval-26-Copy-4" stroke="#5D5D5D" stroke-width="2" fill="#FFFFFF" transform="translate(133.303871, 66.188447) rotate(-330.000000) translate(-133.303871, -66.188447) "></path>
            <path d="M90.8477816,110.85503 C91.0535897,111.034506 91.3860756,111.034376 91.5956315,110.850187 C91.5956315,110.850187 91.9948327,110.499113 92.0488982,110.452277 C93.8697154,108.874933 125.44086,81.1245737 125.44086,53.3268133 C125.44086,24.7036547 110.119852,1.5 91.2204301,1.5 C72.3210084,1.5 57,24.7036547 57,53.3268133 C57,81.949972 90.8477816,110.85503 90.8477816,110.85503 Z" id="Oval-17-Copy" stroke="#5D5D5D" stroke-width="2" stroke-linecap="round" stroke-linejoin="round" fill="#FFFFFF"></path>
            <g id="Face-Copy" transform="translate(70.000000, 25.500000)">
                <circle id="Oval-4" fill="#5D5D5D" cx="4.5" cy="5.5" r="2.5"></circle>
                <circle id="Oval-4-Copy" fill="#5D5D5D" cx="39.5" cy="5.5" r="2.5"></circle>
                <path d="M19.5,12 C19.5,12 21.9971766,13.5 23.2284,13.5 C24.3871766,13.5 26.6700001,12 26.6700001,12" id="Line" stroke="#5D5D5D" stroke-width="2" stroke-linecap="round"></path>
                <path d="M0.5,1.5 L3.64753586,0.240985657" id="Line" stroke="#5D5D5D" stroke-linecap="round"></path>
                <path d="M43.5,1.5 L40.3524641,0.240985657" id="Line-Copy-2" stroke="#5D5D5D" stroke-linecap="round"></path>
            </g>
            <path d="M94.8895268,114.063902 C94.7171141,113.767041 94.1488573,113.290474 93.5690847,113.60125 C92.8394098,113.992379 92.0914941,115.237792 92.0914941,115.237792 C92.0914941,115.237792 91.4316445,114.083567 90.7274824,113.698627 C90.0361367,113.320692 89.3020769,113.708558 89.1078382,114.063902 C88.3217059,115.50207 91.9214023,119.314748 91.9214023,119.314748 C92.0153415,119.41706 92.1656678,119.413548 92.2527251,119.310381 C92.2527251,119.310381 95.6663809,115.401497 94.8895268,114.063902 Z" id="Stinger-Copy" fill="#5D5D5D"></path>
            <path d="M57.5074925,61.1100354 C56.899025,59.3715566 57.0074925,55 57.0074925,55 C57.0074925,55 79.9066048,53.5 91.3040657,53.5 C102.573271,53.5 125.007493,55 125.007493,55 C125.007493,55 125.902451,55.6257748 125.507493,57.5 C125.33585,58.3145096 125.136492,60.594034 125.007492,61.1100354 C124.599995,62.7400235 124.507493,64 124.507493,64 C124.507493,64 102.932297,65.5 92.0074921,65.5 C80.5989634,65.5 57.5074925,64 57.5074925,64 C57.5074925,64 58.0656916,62.7048899 57.5074925,61.1100354 Z" id="Rectangle-5-Copy-2" fill="#5D5D5D"></path>
            <path d="M65.8983051,80.5 C63.5051473,77.6450047 63,74.5 63,74.5 C63,74.5 82.8126324,73.5 92.9491525,73.5 C101.812632,73.5 120,74.5 120,74.5 C120,74.5 119.362406,77.455554 118.067797,79 C116.987406,80.2888873 115.169492,84.5 115.169492,84.5 L92.9491525,86 L68.7966102,84.5 C68.7966102,84.5 68.2914629,83.3549953 65.8983051,80.5 Z" id="Rectangle-5-Copy-3" fill="#5D5D5D"></path>
        </g>
    </g>
</svg>