<?xml version="1.0" encoding="UTF-8" standalone="no"?>
<svg width="261px" height="211px" viewBox="0 0 261 211" version="1.1" xmlns="http://www.w3.org/2000/svg" xmlns:xlink="http://www.w3.org/1999/xlink">
    <!-- Generator: Sketch 3.7.2 (28276) - http://www.bohemiancoding.com/sketch -->
    <title>Group</title>
    <desc>Created with Sketch.</desc>
    <defs></defs>
    <g id="Page-1" stroke="none" stroke-width="1" fill="none" fill-rule="evenodd">
        <g id="iPhone-6-Copy-2" transform="translate(-43.000000, -395.000000)">
            <g id="Group" transform="translate(43.000000, 384.000000)">
                <path d="M195.352831,77.87984 C194.551186,80.5930139 192.196525,99.5577622 187.61197,120.735656 C182.935475,142.338259 175.938752,166.243664 165.90338,177.551795 C144.619038,201.535573 92.8186621,197.805384 90.3554141,197.889284 C66.7801217,198.692279 -12.4060293,171.507064 2.61038365,143.913535 C4.86316096,139.773926 13.1037946,128.751192 35.475638,130.167836 C57.8474813,131.584479 82.3887102,153.811219 67.5209017,155.700191 C62.8711648,156.290945 61.1138819,145.493682 64.7938885,140.007601 C69.7810619,132.572822 78.6513146,123.015614 81.1970215,120.7083 C85.6211909,116.698433 103.131627,97.437662 119.245461,122.566936 C123.332068,128.939936 126.840357,153.960116 110.792048,173.656027 C97.035342,190.539479 49.0970665,210.432397 37.7397169,221.625" id="Line" stroke="#655E65" stroke-linecap="square" stroke-dasharray="6,6"></path>
                <g id="Logo" transform="translate(202.954241, 58.772705) rotate(-347.000000) translate(-202.954241, -58.772705) translate(132.454241, 14.772705)">
                    <g id="Feelers" transform="translate(53.190138, 0.000000)" stroke="#5D5D5D" stroke-width="2" stroke-linecap="round">
                        <path d="M24.7033321,9.27717348 C24.7033321,9.27717348 25.621673,7.64748138 26.8236944,5.6724697 C26.8236944,5.6724697 27.0327037,4.95196426 28.5453238,3.31948385 C29.8161778,1.94792714 33.0537542,0.2650621 33.0537542,0.2650621" id="Line"></path>
                        <path d="M8.35042212,9.01211138 C8.35042212,9.01211138 6.02105049,4.68690217 4.50843043,3.05442176 C3.23757645,1.68286504 0,0 0,0" id="Line-Copy"></path>
                    </g>
                    <ellipse id="Oval-26-Copy" stroke="#5D5D5D" stroke-width="2" fill="#F3F3E8" transform="translate(41.885020, 47.396683) rotate(-30.000000) translate(-41.885020, -47.396683) " cx="41.8850198" cy="47.3966828" rx="35.6945739" ry="20.3756407"></ellipse>
                    <path d="M63.211045,48.8122051 C63.211045,37.5590495 79.1926178,28.4365644 98.9068869,28.4365644 C118.621156,28.4365644 134.602729,37.5590495 134.602729,48.8122051 C134.602729,60.0653607 118.621156,69.1878458 98.9068869,69.1878458 C79.1926178,69.1878458 63.211045,60.0653607 63.211045,48.8122051 Z" id="Oval-26-Copy-2" stroke="#5D5D5D" stroke-width="2" fill="#F3F3E8" transform="translate(98.906887, 48.812205) rotate(-330.000000) translate(-98.906887, -48.812205) "></path>
                    <path d="M69.1879458,81.6472688 C69.3840635,81.8283493 69.7035623,81.8262999 69.908003,81.6367849 C69.908003,81.6367849 70.0819306,81.4753601 70.1195531,81.4409816 C71.3866024,80.2831827 93.3559679,59.9139163 93.3559679,39.5098564 C93.3559679,18.4999393 82.6945606,1.46803624 69.5430482,1.46803624 C56.3915358,1.46803624 45.7301285,18.4999393 45.7301285,39.5098564 C45.7301285,60.5197736 69.1879458,81.6472688 69.1879458,81.6472688 Z" id="Oval-17" stroke="#5D5D5D" stroke-width="2" stroke-linecap="round" stroke-linejoin="round" fill="#FFF29F"></path>
                    <g id="Face" transform="translate(54.581875, 19.084471)">
                        <ellipse id="Oval-4" fill="#5D5D5D" cx="3.13140829" cy="4.03709967" rx="1.73967127" ry="1.8350453"></ellipse>
                        <ellipse id="Oval-4-Copy" fill="#5D5D5D" cx="27.4868061" cy="4.03709967" rx="1.73967127" ry="1.8350453"></ellipse>
                        <path d="M13.5694359,8.80821746 C13.5694359,8.80821746 15.3071425,9.90924464 16.1639121,9.90924464 C16.9702683,9.90924464 18.5588132,8.80821746 18.5588132,8.80821746" id="Line" stroke="#5D5D5D" stroke-width="2" stroke-linecap="round"></path>
                        <path d="M0.347934255,1.10102718 L2.53820534,0.176887839" id="Line" stroke="#5D5D5D" stroke-linecap="round"></path>
                        <path d="M30.2702802,1.10102718 L28.0800091,0.176887839" id="Line-Copy-2" stroke="#5D5D5D" stroke-linecap="round"></path>
                    </g>
                    <path d="M71.5537789,84.0919804 C71.4338024,83.8740785 71.0383704,83.5242702 70.6349249,83.7523856 C70.127167,84.0394811 69.6067161,84.9536365 69.6067161,84.9536365 C69.6067161,84.9536365 69.1475475,84.1064148 68.6575433,83.8238613 C68.1764576,83.5464506 67.6656485,83.831151 67.5304839,84.0919804 C66.9834392,85.1476216 69.4445527,87.8948728 69.4445527,87.8948728 C69.5341131,87.9983167 69.6779176,87.9943556 69.7678758,87.8810413 C69.7678758,87.8810413 72.0943673,85.073799 71.5537789,84.0919804 Z" id="Stinger" fill="#5D5D5D"></path>
                    <path d="M46.2314532,44.8558734 C45.8080397,43.5797985 45.8835189,40.3709967 45.8835189,40.3709967 C45.8835189,40.3709967 61.81829,39.2699695 69.7494242,39.2699695 C77.5913096,39.2699695 93.2025776,40.3709967 93.2025776,40.3709967 C93.2025776,40.3709967 93.8253509,40.8303267 93.5505118,42.206042 C93.431071,42.8039068 93.2923445,44.477119 93.2025772,44.8558734 C92.9190129,46.0523142 92.8546433,46.9771598 92.8546433,46.9771598 C92.8546433,46.9771598 77.841144,48.078187 70.2389164,48.078187 C62.3000806,48.078187 46.2314532,46.9771598 46.2314532,46.9771598 C46.2314532,46.9771598 46.6198863,46.0265255 46.2314532,44.8558734 Z" id="Rectangle-5" fill="#5D5D5D"></path>
                    <path d="M51.7276349,59.4554679 C50.0623118,57.3598496 49.7107957,55.0513591 49.7107957,55.0513591 C49.7107957,55.0513591 63.4977827,54.317341 70.5514678,54.317341 C76.7192844,54.317341 89.3753008,55.0513591 89.3753008,55.0513591 C89.3753008,55.0513591 88.931619,57.2207893 88.0307413,58.3544407 C87.2789313,59.3005073 86.013902,62.3915403 86.013902,62.3915403 L70.5514678,63.4925675 L53.7444742,62.3915403 C53.7444742,62.3915403 53.3929581,61.5510861 51.7276349,59.4554679 Z" id="Rectangle-5-Copy" fill="#5D5D5D"></path>
                </g>
            </g>
        </g>
    </g>
</svg>