<?xml version="1.0" encoding="UTF-8" standalone="no"?>
<svg width="148px" height="144px" viewBox="0 0 148 144" version="1.1" xmlns="http://www.w3.org/2000/svg" xmlns:xlink="http://www.w3.org/1999/xlink" style="background: #FFFFFF;">
    <!-- Generator: Sketch 45.1 (43504) - http://www.bohemiancoding.com/sketch -->
    <title>Dojo 1 Copy</title>
    <desc>Created with Sketch.</desc>
    <defs>
        <rect id="path-1" x="0" y="0" width="112.434029" height="94"></rect>
    </defs>
    <g id="Page-1" stroke="none" stroke-width="1" fill="none" fill-rule="evenodd">
        <g id="Dojo-1-Copy">
            <rect id="Rectangle" stroke="#5A5A5A" stroke-width="4" x="13" y="20" width="121" height="104"></rect>
            <g id="Group" transform="translate(17.000000, 26.000000)">
                <mask id="mask-2" fill="white">
                    <use xlink:href="#path-1"></use>
                </mask>
                <g id="Mask"></g>
                <path d="M6.648,25.7222222 C11.9577274,15.8333333 23.2082199,21.6986982 23.2082199,21.6986982 C23.2082199,21.6986982 25.3433094,16.93951 28.0875056,16.1184476 C30.8317018,15.2973852 34.4811897,18.3258302 34.4811897,18.3258302 C34.4811897,18.3258302 43.1658374,8.83784455 49.908,9.24074074 C56.6501626,9.64363693 65.564,22.4259259 65.564,22.4259259 C65.564,22.4259259 57.2208636,22.0767274 54.028,21.6018519 C50.391659,21.0610178 48.26,26.5462963 48.26,26.5462963 C48.26,26.5462963 52.781884,24.3174919 55.264,25.7222222 C57.9417274,27.237657 58.972,38.9074074 58.972,38.9074074 C58.972,38.9074074 55.4861315,35.8745359 51.3715155,33.962963 C47.7102923,32.2620277 43.5652865,36.6078882 42.7211897,36.4351852 C42.3602059,36.3613275 47.5465397,34.7172702 49.908,38.0833333 C52.2694603,41.4493965 50.4609549,47.4675698 50.4609549,47.4675698 C50.4609549,47.4675698 47.5224512,44.2453793 44.5423109,42.1973862 C41.5621706,40.1493931 37.7131063,41.1792966 37.7131063,41.1792966 C37.7131063,41.1792966 34.0384304,46.0393907 34.962213,52.8461848 C36.2677775,62.466099 42.1179866,76.4694557 41.256,76.8629123 C40.8972874,77.0266479 40.6120584,77.1561213 38.6557869,78.1508944 C36.6732693,79.1590138 34.6670867,81.0335466 34.252,81.3472222 C32.6328179,82.5708172 30.2499792,63.3990789 28.0656593,56.1786759 C25.8813394,48.9582729 25.159286,46.8141288 22.0604547,45.2407729 C18.9616235,43.667417 15.5134092,51.8467761 15.5134092,51.8467761 C15.5134092,51.8467761 11.9577274,48.6377073 11.9577274,43.3329196 C11.9577274,38.0281319 17.3345304,37.8687204 17.3345304,37.8687204 C17.3345304,37.8687204 10.9260485,35.8401301 8.48860616,38.4436271 C5.83591412,41.277038 4.3045228,46.9478151 4.3045228,46.9478151 C4.3045228,46.9478151 1.33827261,35.6111111 6.648,25.7222222 Z" id="Path-2" stroke="#9D9188" fill="#9D9188" mask="url(#mask-2)"></path>
                <path d="M37.548,115.546296 C44.1439288,104.627849 59.9750463,73.4644782 67.8516842,61.5714351 C79.1370208,44.5315513 81.6753684,48.2559771 81.6753684,48.2559771" id="Path-3" stroke="#9D9188" stroke-width="2" mask="url(#mask-2)"></path>
                <path d="M54.028,115.546296 C60.6239288,104.627849 76.4550463,73.4644782 84.3316842,61.5714351 C95.6170208,44.5315513 98.1553684,48.2559771 98.1553684,48.2559771" id="Path-3" stroke="#9D9188" stroke-width="2" mask="url(#mask-2)"></path>
                <path d="M70.508,115.546296 C76.2693088,105.36872 90.097226,76.3199378 96.9771885,65.2338965 C106.834528,49.350253 109.051684,52.8219581 109.051684,52.8219581" id="Path-3" stroke="#9D9188" stroke-width="2" mask="url(#mask-2)"></path>
                <path d="M21.068,115.546296 C27.4111118,104.902481 42.6354347,74.5229634 50.2101671,62.9290663 C61.0629453,46.3177871 63.504,49.9485323 63.504,49.9485323" id="Path-3" stroke="#9D9188" stroke-width="2" mask="url(#mask-2)"></path>
                <path d="M4.588,117.194444 C11.1839288,106.275997 22.6673621,82.9393394 30.544,71.0462963 C41.8293366,54.0064124 48.7153684,49.9041252 48.7153684,49.9041252" id="Path-3" stroke="#9D9188" stroke-width="2" mask="url(#mask-2)"></path>
                <path d="M-11.892,119.666667 C-5.29607123,108.692307 4.53936213,84.821995 12.416,72.8680479 C23.7013366,55.7409032 32.2353684,52.0317554 32.2353684,52.0317554" id="Path-3" stroke="#9D9188" stroke-width="2" mask="url(#mask-2)"></path>
                <path d="M-25.076,120.490741 C-18.4800712,109.572294 -8.64463787,85.8235987 -0.768,73.9305556 C10.5173366,56.8906717 18.2273684,52.3763474 18.2273684,52.3763474" id="Path-3" stroke="#9D9188" stroke-width="2" mask="url(#mask-2)"></path>
                <path d="M86.988,115.546296 C92.5921085,106.26964 106.042724,79.7922602 112.734963,69.6875568 C122.32334,55.2099355 124.48,58.3743248 124.48,58.3743248" id="Path-3" stroke="#9D9188" stroke-width="2" mask="url(#mask-2)"></path>
                <path d="M67.5184277,52.3839613 L111.645796,50.3704777 C111.645796,50.3704777 100.640987,37.9709059 90.306482,37.9709059 C79.9719764,37.9709059 67.5184277,52.3839613 67.5184277,52.3839613 Z" id="Path-4" stroke="#9D9188" stroke-width="2" fill="#9D9188" mask="url(#mask-2)" transform="translate(89.582112, 45.177434) rotate(8.000000) translate(-89.582112, -45.177434) "></path>
                <path d="M117.888,54.5612881 C117.888,54.5612881 95.6970192,49.3855158 60.9177226,49.6203648 C26.138426,49.8552138 -4.064,55.3847753 -4.064,55.3847753" id="Path-5" stroke="#9D9188" stroke-width="2" mask="url(#mask-2)"></path>
            </g>
        </g>
    </g>
</svg>