<?xml version="1.0" encoding="UTF-8" standalone="no"?>
<svg width="349px" height="350px" viewBox="0 0 349 350" version="1.1" xmlns="http://www.w3.org/2000/svg" xmlns:xlink="http://www.w3.org/1999/xlink">
    <!-- Generator: Sketch 40 (33762) - http://www.bohemiancoding.com/sketch -->
    <title>Group 4</title>
    <desc>Created with Sketch.</desc>
    <defs></defs>
    <g id="Page-1" stroke="none" stroke-width="1" fill="none" fill-rule="evenodd">
        <g id="Group-4" transform="translate(0.000000, -38.000000)">
            <g id="Group-2" transform="translate(0.080782, 0.000000)">
                <path d="M0.705461987,386.824128 C1.60617462,387.277662 3.22372747,387.645324 4.33405266,387.645324 L340.511416,387.645327 C341.614719,387.645327 343.394145,387.537871 344.164733,386.831607 L344.07273,387.085758 C343.690135,386.129363 342.727394,384.736794 341.930285,383.982838 L182.861903,233.525898 C182.061258,232.768598 180.690787,231.631014 179.649206,231.253955 L178.275497,231.228973 C177.284069,231.690004 175.811715,232.650027 174.981315,233.378143 L3.0515462,384.13059 C2.22364796,384.856512 0.954008901,386.099301 0.81297214,387.142874 L0.705461987,386.824128 Z" id="Rectangle-18-Copy" fill="#E96737"></path>
                <path d="M88.8976543,297.525745 C89.7947225,297.9983 91.409321,298.381382 92.5196462,298.381382 L428.69701,298.381386 C429.800312,298.381386 431.579739,298.260468 432.337779,297.535563 L432.329543,297.569642 C431.907614,296.59399 430.946469,295.144119 430.18978,294.338731 L270.973594,124.875759 C270.213765,124.067029 268.913265,122.845143 267.896269,122.412333 L266.399186,122.381691 C265.441947,122.893879 264.032541,123.934057 263.245051,124.711051 L91.1589974,294.503436 C90.374256,295.277717 89.1664912,296.597897 88.9204808,297.635055 L88.8976543,297.525745 Z" id="Rectangle-18-Copy" fill="#E96737" transform="translate(260.617716, 210.381539) scale(1, -1) rotate(-90.000000) translate(-260.617716, -210.381539) "></path>
                <path d="M84.3085273,340.564125 C69.2735493,338.121724 39.7842658,327.027759 26.3173677,305.272638 C24.741653,302.727147 16.5752217,280.342161 34.7119027,236.86886 C52.8485838,193.395559 60.6931422,186.523432 87.3921101,158.877571 C97.3480463,148.568542 99.6550121,152.839007 108.358026,154.252793 C144.708563,160.157863 181.625411,211.658737 174.232438,259.53368 C166.839465,307.408623 120.659065,346.469195 84.3085273,340.564125" id="Oval-9-Copy" fill="#EDEFF3"></path>
                <g id="face" transform="translate(186.325839, 100.513483) scale(-1, 1) rotate(-20.000000) translate(-186.325839, -100.513483) translate(101.825839, 24.513483)">
                    <path d="M166.897146,77.9525417 C166.897146,69.286651 159.76062,53.4471078 145.229381,53.4471078 C130.698143,53.4471078 122.741649,57.5511099 120.171868,61.6143237 C117.602087,65.6775375 166.897146,86.6184323 166.897146,77.9525417 Z" id="Oval-5-Copy" fill="#313131" transform="translate(143.485961, 66.740418) rotate(-307.000000) translate(-143.485961, -66.740418) "></path>
                    <path d="M48.5862121,43.2444526 C63.1174508,43.2444526 74.8973471,36.2193602 74.8973471,27.5534695 C74.8973471,18.8875788 64.8917713,6.86413092 50.3605327,6.86413092 C35.8292941,6.86413092 22.2750771,18.8875788 22.2750771,27.5534695 C22.2750771,36.2193602 34.0549735,43.2444526 48.5862121,43.2444526 Z" id="Oval-5-Copy-3" fill="#313131" transform="translate(48.586212, 25.054292) rotate(-16.000000) translate(-48.586212, -25.054292) "></path>
                    <path d="M10.2208576,109.836882 C19.2418182,122.389668 49.4699366,151.417987 78.6298087,151.417987 C89.7589948,151.417987 120.903587,142.800121 128.245092,137.296102 C140.414675,128.172412 145.233092,93.0001191 144.78352,90.2231527 C142.696876,77.3341676 141.19329,58.0285883 132.003825,45.5038509 C118.356379,26.9031273 93.3539181,20.398278 69.6088481,20.398278 C52.0988788,20.398278 38.0274401,31.4914065 26.7592854,39.2274577 C10.2408441,50.5680463 0.448150336,62.3098009 0.448150336,83.9467595 C0.448150336,89.624446 1.19989705,97.2840951 10.2208576,109.836882 Z" id="Oval-4-Copy" fill="#EDEFF3"></path>
                    <path d="M100.837276,113.177929 C111.696823,111.608831 102.416765,100.550327 101.8698,99.0560446 C100.807729,96.1545125 99.9869727,92.3558497 100.085768,88.9926409 C100.213722,84.6368149 98.177714,81.0114141 94.9138876,81.0114141 C86.7353942,81.0114141 80.1054154,90.1440342 80.1054154,101.409692 C80.1054154,112.67535 92.7268666,114.349804 100.837276,113.177929 Z" id="Oval-1-Copy" fill="#313131"></path>
                    <path d="M59.732575,83.4148821 C70.5921213,81.8457838 59.4898457,69.8212467 58.942881,68.3269639 C57.8808092,65.4254318 58.8822712,62.5928023 58.9810666,59.2295935 C59.1090204,54.8737676 57.0730125,51.2483668 53.8091861,51.2483668 C45.6306927,51.2483668 39.0007139,60.3809869 39.0007139,71.6466448 C39.0007139,82.9123026 51.6221651,84.586757 59.732575,83.4148821 Z" id="Oval-1-Copy-2" fill="#313131" transform="translate(51.739235, 67.490503) scale(-1, 1) rotate(-52.000000) translate(-51.739235, -67.490503) "></path>
                    <path d="M51.1817919,90.3070439 C57.9475123,90.3070439 67.9075726,110.684679 64.7132327,116.981715 C61.5188929,123.278751 48.208201,118.436921 44.7395784,111.599189 C41.2709558,104.761457 44.4160714,90.3070439 51.1817919,90.3070439 Z" id="Triangle-1-Copy" fill="#313131" transform="translate(54.321985, 105.106324) rotate(-23.000000) translate(-54.321985, -105.106324) "></path>
                    <path d="M44.8717995,127.66788 C55.1452235,127.66788 62.5334163,126.453847 62.8091332,125.314233 C63.0848502,124.17462 55.1452235,123.745135 44.8717995,123.745135 C34.5983755,123.745135 25.9849366,119.039756 25.6057741,120.606938 C25.2266117,122.17412 34.5983755,127.66788 44.8717995,127.66788 Z" id="Oval-3-Copy" fill="#313131" transform="translate(44.205376, 123.977599) rotate(-327.000000) translate(-44.205376, -123.977599) "></path>
                </g>
                <path d="M273.331075,167.201278 C276.946725,180.632587 269.887566,190.572423 255.446361,200.187205 C235.135281,213.71008 221.58995,226.633449 203.190068,229.331433 C165.333843,234.88231 177.829586,248.797697 175.251638,240.51122 C172.148646,230.537057 162.358239,205.200243 148.594517,196.270944 C131.41415,185.125074 86.1197989,157.306003 88.7282647,156.170368 C92.5073334,154.525093 107.265836,140.953524 125.601111,143.043043 C127.921715,143.307503 134.922298,153.408896 146.942079,160.722211 C158.961861,168.035526 170.153181,171.442203 174.028698,172.508321 C207.380455,181.683071 247.641829,155.159273 249.43003,156.376601 C250.490475,157.098505 271.75914,161.361902 273.331075,167.201278" id="Oval-5-Copy-2" fill="#313131"></path>
                <path d="M144.079957,360.419613 C134.882755,367.737672 119.633152,364.036673 111.483072,360.827886 C105.531229,358.484571 90.9677381,353.56812 88.9106417,346.584103 C84.8951247,332.951082 84.9940264,309.13785 90.1808392,286.392438 C95.367652,263.647027 112.708558,242.224565 112.708558,242.224565 C112.708558,242.224565 126.808603,231.069035 138.367356,231.645514 C154.892839,232.469703 165.04369,249.708518 167.060707,253.892521 C171.901346,263.933707 175.00214,283.310598 168.643829,305.908552 C163.535401,324.064319 154.71018,351.961323 144.079957,360.419613" id="Oval-8-Copy" fill="#313131"></path>
            </g>
        </g>
    </g>
</svg>