<?xml version="1.0" encoding="UTF-8" standalone="no"?>
<svg width="215px" height="132px" viewBox="0 0 215 132" version="1.1" xmlns="http://www.w3.org/2000/svg" xmlns:xlink="http://www.w3.org/1999/xlink">
    
    <!-- Generator: Sketch 3.7.2 (28276) - http://www.bohemiancoding.com/sketch -->
    <title>Artboard 1 Copy 20</title>
    <desc>Created with Sketch.</desc>
    <defs></defs>
    <g id="Page-1" stroke="none" stroke-width="1" fill="none" fill-rule="evenodd">
        <g id="Artboard-1-Copy-20">
            <path d="M109,12.5548103 C97.7058977,4.65682837 83.8160156,0 68.7983073,0 C30.9359955,0 0.242527385,29.6003712 0.242527385,66.1142796 C0.242527385,102.628188 30.9359955,132.228559 68.7983073,132.228559 C83.8160156,132.228559 97.7058977,127.571731 109,119.673749 C91.819663,107.659515 80.6459128,88.1453104 80.6459128,66.1142796 C80.6459128,44.0832488 91.819663,24.5690445 109,12.5548103 Z" id="Combined-Shape-Copy-2" fill="#E7E9F7"></path>
            <path d="M214.757473,12.5548103 C203.46337,4.65682837 189.573488,0 174.55578,0 C136.693468,0 106,29.6003712 106,66.1142796 C106,102.628188 136.693468,132.228559 174.55578,132.228559 C189.573488,132.228559 203.46337,127.571731 214.757473,119.673749 C197.577136,107.659515 186.403385,88.1453104 186.403385,66.1142796 C186.403385,44.0832488 197.577136,24.5690445 214.757473,12.5548103 Z" id="Combined-Shape-Copy-3" fill="#B4D0F6" transform="translate(160.378736, 66.114280) scale(-1, 1) translate(-160.378736, -66.114280) "></path>
            <g id="Feelers" transform="translate(84.000000, 9.000000)" stroke="#5D5D5D" stroke-width="2" stroke-linecap="round">
                <path d="M35.5,12.6388889 C35.5,12.6388889 36.8774379,10.3247371 38.6692096,7.54821809 C38.6692096,7.54821809 38.8474307,6.74637876 41.0211461,4.52234592 C42.8474307,2.65378617 47.5,0.361111111 47.5,0.361111111" id="Line"></path>
                <path d="M12,12.2777778 C12,12.2777778 8.65256928,6.38526765 6.47885393,4.1612348 C4.65256928,2.29267505 0,0 0,0" id="Line-Copy"></path>
            </g>
            <ellipse id="Oval-26-Copy" stroke="#5D5D5D" stroke-width="2" fill="#FFFFFF" transform="translate(67.753945, 73.571543) rotate(-30.000000) translate(-67.753945, -73.571543) " cx="67.7539445" cy="73.5715432" rx="51.2949982" ry="27.7590432"></ellipse>
            <path d="M98.4005751,75.5 C98.4005751,60.1691038 121.366944,47.7409568 149.697395,47.7409568 C178.027847,47.7409568 200.994216,60.1691038 200.994216,75.5 C200.994216,90.8308962 178.027847,103.259043 149.697395,103.259043 C121.366944,103.259043 98.4005751,90.8308962 98.4005751,75.5 Z" id="Oval-26-Copy-2" stroke="#5D5D5D" stroke-width="2" fill="#FFFFFF" transform="translate(149.697395, 75.500000) rotate(-330.000000) translate(-149.697395, -75.500000) "></path>
            <path d="M107.127351,120.35503 C107.33316,120.534506 107.665646,120.534376 107.875201,120.350187 C107.875201,120.350187 108.274403,119.999113 108.328468,119.952277 C110.149285,118.374933 141.72043,90.6245737 141.72043,62.8268133 C141.72043,34.2036547 126.399422,11 107.5,11 C88.6005783,11 73.2795699,34.2036547 73.2795699,62.8268133 C73.2795699,91.449972 107.127351,120.35503 107.127351,120.35503 Z" id="Oval-17" stroke="#5D5D5D" stroke-width="2" stroke-linecap="round" stroke-linejoin="round" fill="#FFF29F"></path>
            <g id="Face" transform="translate(86.000000, 35.000000)">
                <circle id="Oval-4" fill="#5D5D5D" cx="4.5" cy="5.5" r="2.5"></circle>
                <circle id="Oval-4-Copy" fill="#5D5D5D" cx="39.5" cy="5.5" r="2.5"></circle>
                <path d="M19.5,12 C19.5,12 21.9971766,13.5 23.2284,13.5 C24.3871766,13.5 26.6700001,12 26.6700001,12" id="Line" stroke="#5D5D5D" stroke-width="2" stroke-linecap="round"></path>
                <path d="M0.5,1.5 L3.64753586,0.240985657" id="Line" stroke="#5D5D5D" stroke-linecap="round"></path>
                <path d="M43.5,1.5 L40.3524641,0.240985657" id="Line-Copy-2" stroke="#5D5D5D" stroke-linecap="round"></path>
            </g>
            <path d="M110.389527,123.563902 C110.217114,123.267041 109.648857,122.790474 109.069085,123.10125 C108.33941,123.492379 107.591494,124.737792 107.591494,124.737792 C107.591494,124.737792 106.931644,123.583567 106.227482,123.198627 C105.536137,122.820692 104.802077,123.208558 104.607838,123.563902 C103.821706,125.00207 107.421402,128.814748 107.421402,128.814748 C107.515342,128.91706 107.665668,128.913548 107.752725,128.810381 C107.752725,128.810381 111.166381,124.901497 110.389527,123.563902 Z" id="Stinger" fill="#5D5D5D"></path>
            <path d="M74,70.1100354 C73.3915324,68.3715566 73.5,64 73.5,64 C73.5,64 96.3991122,62.5 107.796573,62.5 C119.065779,62.5 141.5,64 141.5,64 C141.5,64 142.394958,64.6257748 142,66.5 C141.828357,67.3145096 141.629,69.594034 141.5,70.1100354 C141.092503,71.7400235 141,73 141,73 C141,73 119.424804,74.5 108.5,74.5 C97.0914709,74.5 74,73 74,73 C74,73 74.5581991,71.7048899 74,70.1100354 Z" id="Rectangle-5" fill="#5D5D5D"></path>
            <path d="M81.8983051,90 C79.5051473,87.1450047 79,84 79,84 C79,84 98.8126324,83 108.949153,83 C117.812632,83 136,84 136,84 C136,84 135.362406,86.955554 134.067797,88.5 C132.987406,89.7888873 131.169492,94 131.169492,94 L108.949153,95.5 L84.7966102,94 C84.7966102,94 84.2914629,92.8549953 81.8983051,90 Z" id="Rectangle-5-Copy" fill="#5D5D5D"></path>
        </g>
    </g>
</svg>