<?xml version="1.0" encoding="UTF-8" standalone="no"?>
<svg width="148px" height="144px" viewBox="0 0 148 144" version="1.1" xmlns="http://www.w3.org/2000/svg" xmlns:xlink="http://www.w3.org/1999/xlink" style="background: #FFFFFF;">
    <!-- Generator: Sketch 45.1 (43504) - http://www.bohemiancoding.com/sketch -->
    <title>Dojo 1 Copy 2</title>
    <desc>Created with Sketch.</desc>
    <defs>
        <rect id="path-1" x="31" y="26" width="18" height="24" rx="3"></rect>
        <rect id="path-2" x="65" y="26" width="18" height="24" rx="3"></rect>
        <rect id="path-3" x="99" y="26" width="18" height="24" rx="3"></rect>
    </defs>
    <g id="Page-1" stroke="none" stroke-width="1" fill="none" fill-rule="evenodd">
        <g id="Dojo-1-Copy-2">
            <rect id="Rectangle" stroke="#5A5A5A" stroke-width="4" x="13" y="20" width="121" height="104"></rect>
            <rect id="Rectangle-3" fill="#E6E7F7" x="25" y="43" width="98" height="71" rx="4"></rect>
            <g id="Rectangle-2">
                <use fill="#BACEF6" fill-rule="evenodd" xlink:href="#path-1"></use>
                <rect stroke="#FFFFFF" stroke-width="3" x="32.5" y="27.5" width="15" height="21" rx="3"></rect>
            </g>
            <g id="Rectangle-2">
                <use fill="#BACEF6" fill-rule="evenodd" xlink:href="#path-2"></use>
                <rect stroke="#FFFFFF" stroke-width="3" x="66.5" y="27.5" width="15" height="21" rx="3"></rect>
            </g>
            <g id="Rectangle-2">
                <use fill="#BACEF6" fill-rule="evenodd" xlink:href="#path-3"></use>
                <rect stroke="#FFFFFF" stroke-width="3" x="100.5" y="27.5" width="15" height="21" rx="3"></rect>
            </g>
            <path d="M86.6995179,68.3544462 L130.026673,68.3544462 C132.232372,68.3544462 134.020445,70.1422458 134.020445,72.3642092 L134.020445,74.3446832 C134.020445,76.5592142 132.223193,78.3544462 130.026673,78.3544462 L86.6995179,78.3544462 L77.9640963,73.1092802 L86.6995179,68.3544462 Z" id="Rectangle-4" fill="#5A5A5A" transform="translate(105.992271, 73.354446) rotate(-45.000000) translate(-105.992271, -73.354446) "></path>
        </g>
    </g>
</svg>