<?xml version="1.0" encoding="UTF-8" standalone="no"?>
<svg width="148px" height="144px" viewBox="0 0 148 144" version="1.1" xmlns="http://www.w3.org/2000/svg" xmlns:xlink="http://www.w3.org/1999/xlink" style="background: #FFFFFF;">
    <!-- Generator: Sketch 45.1 (43504) - http://www.bohemiancoding.com/sketch -->
    <title>wespeaktoo copy</title>
    <desc>Created with Sketch.</desc>
    <defs>
        <rect id="path-1" x="0" y="23.6198206" width="8.60659304" height="17.3653551" rx="4"></rect>
        <path d="M13.4471365,22.5211523 L82.3262574,1.05331748 L82.3262574,1.05331748 C84.4353317,0.395973754 86.6779566,1.57283389 87.3353003,3.68190818 C87.4553974,4.06723713 87.5164835,4.46852346 87.5164835,4.87213429 L87.5164835,53.6493396 L87.5164835,53.6493396 C87.5164835,55.8584786 85.7256225,57.6493396 83.5164835,57.6493396 C83.2117678,57.6493396 82.90805,57.6145206 82.6112402,57.5455601 L13.7321193,41.5422651 L13.7321193,41.5422651 C11.9199914,41.1212374 10.6373626,39.5064402 10.6373626,37.6460445 L10.6373626,26.3399691 L10.6373626,26.3399691 C10.6373626,24.5893176 11.7757822,23.04207 13.4471365,22.5211523 Z" id="path-2"></path>
    </defs>
    <g id="Page-1" stroke="none" stroke-width="1" fill="none" fill-rule="evenodd">
        <g id="wespeaktoo-copy">
            <rect id="Rectangle" stroke="#5A5A5A" stroke-width="4" x="13" y="20" width="121" height="104"></rect>
            <g id="Group" transform="translate(70.535182, 75.818126) rotate(-13.000000) translate(-70.535182, -75.818126) translate(26.535182, 46.818126)">
                <g id="Rectangle-7">
                    <use fill="#AF009F" fill-rule="evenodd" xlink:href="#path-1"></use>
                    <rect stroke="#AF009F" stroke-width="1" x="0.5" y="24.1198206" width="7.60659304" height="16.3653551" rx="3.80329652"></rect>
                </g>
                <g id="Rectangle-7-Copy">
                    <use fill="#AF009F" fill-rule="evenodd" xlink:href="#path-2"></use>
                    <path stroke="#AF009F" stroke-width="1" d="M13.5959148,22.9985044 C12.1334798,23.4543074 11.1373626,24.808149 11.1373626,26.3399691 L11.1373626,37.6460445 C11.1373626,39.2738907 12.2596628,40.6868383 13.8452747,41.0552375 L82.7243956,57.0585325 C82.9841042,57.1188729 83.2498573,57.1493396 83.5164835,57.1493396 C85.4494801,57.1493396 87.0164835,55.5823362 87.0164835,53.6493396 L87.0164835,4.87213429 C87.0164835,4.51897482 86.9630331,4.16784928 86.8579482,3.83068644 C86.2827725,1.98524644 84.3204757,0.955493821 82.4750357,1.53066959 L13.5959148,22.9985044 Z"></path>
                </g>
                <path d="M31.9282382,45.0069087 L31.9282382,49.8566834 L31.9282382,49.8566834 C31.9282382,52.6181072 34.1668145,54.8566834 36.9282382,54.8566834 L50.9282382,54.8566834 L50.9282382,54.8566834 C53.689662,54.8566834 55.9282382,52.6181072 55.9282382,49.8566834 L55.9282382,46.591351 L55.9282382,46.591351 C55.9282382,43.9055678 53.8064051,41.6995633 51.1226529,41.5951321 L36.08377,41.0099336 L36.08377,41.0099336 C33.8763016,40.9240358 32.017161,42.6439086 31.9312631,44.851377 C31.9292467,44.9031964 31.9282382,44.9550501 31.9282382,45.0069087 Z" id="Path-6" stroke="#AF009F" stroke-width="4" transform="translate(43.928238, 47.965290) rotate(12.000000) translate(-43.928238, -47.965290) "></path>
            </g>
        </g>
    </g>
</svg>